<svg xmlns="http://www.w3.org/2000/svg" xml:space="preserve" width="478.148" height="468.042" fill-rule="evenodd" clip-rule="evenodd" image-rendering="optimizeQuality" shape-rendering="geometricPrecision" text-rendering="geometricPrecision" viewBox="0 0 11955.14 11702.49"><g id="Camada_x0020_1"><g id="_1491495639968"><path fill="#003c00" d="M5017.27 8983.84c-32.54-220.09 105.69-375.01 269.3-417.75 228.55-59.71 356.24 98.1 473.92 186.23 619.34 463.75 1479.4 487.85 2113.73 53.14 143.03-98.02 261.17-244.54 437.32-251.96 207.75-8.78 355.66 139.24 381.85 310.49 50.2 328.12-432.36 577.15-674.12 707.22-675.03 363.13-1560.41 354-2252.44 41.14-200.57-90.67-714.29-389.92-749.54-628.49zm-1183.85-2177.7c-109.7-855 547.86-1548.84 1280.84-1625.91 847.67-89.12 1546.14 520.26 1625.3 1280.26 88.61 850.91-512.83 1523.92-1281.54 1621.91-859.83 109.62-1530-539.14-1624.6-1276.27zm4461.84-886.7c-798.31 167.13-340.27 1548.75-514.28 1912.76-120.46 252.13-442.15 305.77-629.08 99.84-102.01-112.39-103.93-194.21-103.46-382.7 1.53-604.22-73.2-1256.49 213.82-1723.38 591-961.39 1987.75-849.42 2409.88 189.75 119.56 294.3 119.05 495.1 118.54 842.29-.26 178.19 19.7 823.47-20.57 940.02-89.21 258.13-418.95 339.58-620.01 157.71-99.13-89.7-127.14-182.15-126.86-354.09.61-356.24 42.79-1115.96-80.1-1374.31-104.27-219.24-337.94-372.77-647.88-307.88zm-5363.64-6.08c-25.09 145.22-19.6 994.92 17.74 1106.93 144.75 434.3 501.64 230.98 675.52 480.31 94.75 135.87 82.33 310.79-24.55 436.17-240.31 281.97-908.15 19.15-1189.39-328.15-177.31-218.96-245.04-525.17-244.94-888.92l-1.13-1533.33c-.19-264.86 44.31-559.47 369.26-570.69 108.31-3.76 209.3 40.46 282.48 115.5 154.02 157.96 104.55 308.59 115.23 479.51l294.22.81c633.94 1.74 587.95 702 59.86 701.92l-354.28-.06zm4408.97-3349.53c.18-218.36 306.59-221.65 306.94 14.9l2.02 1347.24c.33 224.3-310.24 210.38-310.08 3zm2449.93 200.29-.3 1023.84c-.12 479.65-871.73 472.9-872.1 3.4l-1.07-1025.34c-.04-507.26 873.59-510.9 873.47-1.9M3133.84 3934.99l149.75-1216.62c26.47-215.18 50.87-319.75 307.26-319.75 249.84 0 310.31 96.69 337.52 320.06l148.26 1216.94c20.7 169.83-265.94 233.63-296.13-1.48l-23.56-183.44c-112.72 27.71-211.52 24.6-301.13 1.29-10.43 66.85-13.11 130.42-20.21 184.19-29.05 220.12-324.67 185.04-301.75-1.19zm-661.89-280.58-2.08 280.84c-1.51 204.16-305.73 203.93-305.65-.65l.43-1034.51c0-94.07-.02-198.48-.02-295.75 0-116.62 38.96-188.44 134.46-203.24l466.63.39c186.84.16 275.15 148.14 276.74 322.03l4.57 497.9c1.99 217.14-91.66 433.99-327.38 433.5l-247.71-.51zm5678.58-111.84 1.71 392.01c.98 225.04-300.02 219.08-301.97-4.31l-11.6-1312.72c-1.33-152.18 56.11-218.91 210.67-218.87l363.77.14c161.26.05 295.77 99.31 295.52 325.64l-.61 528.73c-.12 130.89-74.87 232.19-112.63 254.99l141.56 417.84c68.29 201.5-242.47 241.53-309.61 14.22l-117.43-397.52-159.36-.14zM4824.42 2398.75c216.22.43 279.46 100.74 279.28 323.85l-.44 495.43c-.18 207.43-83.19 237.02-130.49 269.7l145.81 446.5c55.6 170.25-236.47 241.88-305.99.49l-112.91-391.89-162.98-.51-.09 391.5c-.02 215.14-302.4 205.04-301.89-3.24l3.24-1315.2c.33-130.15 42.75-215.21 188.56-215.6l397.89-1.04zm777.55 432.21-.07 760.48c.14 298.89 220.08 249.94 390.12 198.25 182.99-55.62 262.4 195.81 58.3 264.77-379.62 128.26-750.23 8.61-750.33-463.02l-.1-743.19c0-330.11 126.34-463.2 420.11-470.77 179.43-4.64 367.32 64.83 429.05 230.34 28.27 75.82 36.62 270.83 27.4 404.24-14.86 215.94-301.92 187.62-299.28 13.9 3.1-205.57 11.63-368.91-123.77-371.74-133.49-2.8-151.41 50.91-151.43 176.74m1396.32-161.23-320.72-.21-.08 498.32 321.55 3.12c192.23 1.83 215.23 254.41 3.51 269.49-103.64 7.42-264.84 2.8-321.77 3.23l-5.21 362.68 323.65 1.39c210.07.84 204.81 275.05 6.86 275.67l-437.65 1.34c-133.85.39-193.15-19.45-193.15-172.96l-.1-1261.44c0-140.18 14.2-257.52 210.56-255.64l412.63 3.96c232.59.67 217.49 275.95-.09 271.05zM9.35 9571.46c17.5 199.36 81.6 409.53 164.62 567.67 283.42 539.91 759.42 760.75 1398.73 813.09 899.43 73.62 1818.03 151.98 2720.41 233.63 1820.67 164.8 3632.68 293.28 5449.99 465.78 480.55 45.62 903.52 114.64 1319.04-74.06 337.41-153.25 593.46-407.82 744.76-724.26 192.29-402.18 142.42-857.48 142.42-1350.98V2122.34c0-502.76 48.07-925.5-167.98-1327.61-504.86-939.54-1329.02-803.67-2121.3-765.35L1934.63 424.93c-616.71 31.09-1155.5 6.94-1616.53 599.91C52.6 1366.29 6.49 1670.08 6.52 2191.49V6616c0 290.2-16.41 2736.4 2.83 2955.46"/><path fill="#003a00" d="M4564.67 6719.71c44.06 374.54 390.9 675.91 803.47 630.43 371.58-40.95 688.81-380.48 639.92-797.47-44.55-379.89-372.74-684.38-805.34-642.12-368.48 36-687.26 390.75-638.06 809.16z"/><path fill="#003a00" d="m9484.38 3725.07-.04-955.28c1.16-163.33-266.17-155.75-267.31-1.29l-.02 952.12c0 176.95 267.37 183.15 267.37 4.45"/><path fill="#003a00" d="M2468.4 3390.39h164.34c67.98 0 116.16-48.2 116.16-116.65l.08-509.82c.02-73.41-29.02-111.54-121.73-113.08-36.9-.6-101.7-.24-160.51-.22l1.65 739.76z"/><path fill="#003a00" d="m4536.28 3309.76 144.32-.09c95.65-.06 128.78-42.81 129.36-147.84l1.98-370.25c.49-90.88-32.13-141.22-132.74-141.2l-142.84.06z"/><path fill="#003a00" d="M3479.66 3463.23c100.56 24.74 148.47 18.14 248.57 2.47l-80.32-787.17c-4.51-44.26-90.76-41.42-94.47-1.82l-73.78 786.53z"/><path fill="#003a00" d="m8150.65 3309.86 144.33-.09c95.65-.06 128.78-42.81 129.36-147.84l1.98-370.26c.49-90.88-32.13-141.22-132.74-141.19l-142.84.06z"/></g></g></svg>